<?xml version="1.0" standalone="no"?>
<!DOCTYPE svg PUBLIC "-//W3C//DTD SVG 20010904//EN"
 "http://www.w3.org/TR/2001/REC-SVG-20010904/DTD/svg10.dtd">
<svg version="1.0" xmlns="http://www.w3.org/2000/svg"
 width="259.000000pt" height="194.000000pt" viewBox="0 0 259.000000 194.000000"
 preserveAspectRatio="xMidYMid meet">
<metadata>
Created by potrace 1.16, written by Peter Selinger 2001-2019
</metadata>
<g transform="translate(0.000000,194.000000) scale(0.100000,-0.100000)"
fill="#000000" stroke="none">
<path d="M0 970 l0 -970 1295 0 1295 0 0 970 0 970 -1295 0 -1295 0 0 -970z
m360 930 c0 -5 9 -10 20 -10 11 0 20 5 20 10 0 6 59 10 158 10 l158 0 32 -66
33 -67 -82 7 c-45 4 -125 7 -178 7 -53 0 -101 3 -106 7 -6 4 -16 18 -22 32
l-12 25 0 -27 c-1 -16 -7 -28 -13 -29 -31 -3 -64 4 -70 15 -6 8 -8 8 -8 -1 0
-9 -7 -10 -27 -2 -16 5 -34 12 -42 15 -11 3 -10 8 5 23 10 10 23 16 27 14 13
-8 36 17 30 33 -4 11 4 14 36 14 23 0 41 -4 41 -10z m510 -47 c-29 -32 -55
-59 -59 -60 -3 -2 -14 16 -23 40 -34 84 -39 77 52 77 l82 0 -52 -57z m448 -13
c-1 -39 -5 -74 -8 -80 -3 -5 -33 -10 -67 -11 -48 -2 -60 -5 -56 -16 4 -10 8
-11 12 -4 11 17 140 10 151 -8 8 -14 9 -14 10 1 0 9 8 19 18 22 14 4 14 5 -3
4 -40 -1 -45 2 -45 30 1 15 7 50 14 77 l13 50 142 2 c113 1 144 -2 156 -14 8
-8 12 -19 9 -25 -4 -6 -2 -8 4 -4 5 3 37 -23 69 -58 89 -99 106 -104 369 -107
119 -1 251 -4 293 -7 70 -4 78 -7 88 -29 10 -21 10 -24 -3 -19 -9 3 -27 6 -41
6 -23 0 -24 2 -12 17 13 15 10 16 -35 10 -27 -4 -58 -7 -70 -8 -15 -1 -11 -4
12 -10 17 -5 32 -16 32 -24 0 -21 113 -21 134 0 21 21 46 19 46 -4 0 -20 -79
-70 -228 -145 -43 -22 -70 -41 -66 -47 4 -7 -1 -9 -12 -7 -11 3 -32 -2 -47 -9
-16 -8 -35 -12 -42 -9 -9 3 -12 0 -9 -8 5 -14 -23 -43 -33 -33 -3 4 -14 2 -24
-4 -15 -8 -19 -6 -19 7 0 10 5 14 15 10 8 -3 15 -1 15 4 0 5 6 8 13 6 6 -1 9
-1 4 1 -4 3 -4 9 -1 15 3 5 -3 4 -15 -4 -29 -18 -51 3 -31 29 13 17 13 17 -5
1 -15 -14 -16 -20 -5 -32 8 -11 9 -16 1 -16 -6 0 -17 13 -25 29 -14 27 -14 29
4 34 11 3 20 10 20 16 0 17 -28 25 -44 12 -11 -9 -15 -8 -20 5 -3 9 -3 21 1
26 4 7 1 8 -6 4 -7 -5 -10 -14 -7 -22 7 -19 -6 -18 -30 4 -10 10 -27 21 -36
25 -10 3 -18 11 -18 17 0 6 -5 8 -11 5 -6 -4 11 -22 39 -41 50 -34 68 -51 59
-60 -10 -10 -236 132 -237 149 0 5 5 5 12 1 6 -4 8 -3 5 4 -7 11 -97 44 -97
36 0 -3 13 -10 30 -15 16 -6 27 -15 24 -21 -4 -7 -9 -7 -13 0 -4 6 -40 16 -81
21 -78 11 -179 36 -189 47 -3 4 22 4 57 0 39 -3 61 -2 57 4 -3 5 -12 7 -20 3
-19 -7 -19 2 0 31 13 19 13 23 1 23 -8 0 -12 -6 -9 -13 6 -15 -12 -26 -49 -30
-17 -2 -27 0 -23 6 3 6 -1 10 -9 10 -22 0 -20 17 2 23 15 4 15 5 0 6 -23 1
-32 -17 -18 -34 10 -13 8 -15 -14 -15 -15 0 -25 3 -23 8 3 4 -27 7 -66 6 -40
0 -75 5 -79 10 -5 7 -8 7 -8 -1 0 -8 -13 -13 -30 -13 -17 0 -30 5 -31 13 0 10
-2 10 -6 0 -7 -18 -21 -16 -26 5 -4 13 -5 11 -6 -5 -1 -20 4 -23 36 -23 20 0
34 -2 31 -5 -5 -5 -87 -21 -158 -31 l-35 -4 30 14 c17 9 28 16 25 16 -23 6
-48 5 -44 -2 3 -4 -2 -8 -10 -8 -8 0 -20 -8 -26 -17 -9 -15 -11 -15 -7 -2 5
15 2 15 -26 5 -18 -6 -35 -15 -38 -19 -8 -12 -61 3 -56 16 6 19 25 19 31 0 4
-15 4 -15 3 2 -1 12 -10 20 -20 20 -10 0 -22 6 -26 14 -17 27 -22 -8 -6 -41
l16 -33 -21 25 c-19 22 -20 22 -11 3 15 -31 14 -33 -19 -44 -16 -6 -27 -15
-24 -20 3 -5 -3 -6 -12 -2 -11 4 -15 3 -10 -5 3 -6 1 -14 -5 -18 -8 -5 -9 -3
-4 6 6 10 4 12 -10 6 -11 -4 -22 -2 -27 6 -6 10 -10 7 -14 -9 -8 -28 -12 -28
-31 -5 -13 15 -13 15 -3 -5 11 -23 40 -32 40 -13 0 6 5 10 11 10 8 0 8 -5 -1
-15 -7 -8 -16 -15 -21 -15 -4 0 -25 -11 -45 -25 -34 -23 -39 -24 -54 -10 -16
14 -17 14 -15 -10 2 -14 -2 -28 -7 -32 -7 -3 -8 -1 -4 5 4 7 1 12 -9 12 -10 0
-13 -5 -9 -12 5 -8 2 -9 -10 -5 -9 4 -14 3 -11 -2 3 -5 1 -12 -4 -15 -5 -4
-13 -1 -16 4 -9 14 -35 -19 -28 -36 2 -6 -3 -14 -11 -17 -9 -4 -15 -1 -13 5 1
6 -5 13 -13 15 -9 3 -11 1 -5 -4 14 -11 18 -43 6 -43 -5 0 -16 9 -24 20 -13
19 -15 18 -51 -19 -23 -24 -31 -38 -22 -38 8 0 13 4 10 8 -11 18 15 17 31 -1
16 -18 14 -25 -8 -21 -4 1 -3 -7 2 -17 13 -25 -16 -72 -31 -51 -7 11 -8 9 -4
-4 4 -12 -9 -40 -34 -78 -37 -54 -40 -64 -17 -60 5 1 6 -3 2 -9 -3 -5 -12 -10
-20 -10 -7 0 -16 -9 -20 -20 -6 -18 -13 -19 -85 -16 -44 2 -84 8 -91 12 -7 4
-10 2 -7 -7 3 -8 -2 -19 -10 -25 -14 -10 -13 -13 7 -23 24 -14 44 -5 22 8 -21
14 40 24 94 16 35 -6 43 -10 35 -20 -5 -7 -19 -38 -30 -70 -11 -32 -24 -63
-29 -69 -5 -6 -12 -26 -16 -44 -10 -47 -20 -31 -43 72 -19 80 -32 105 -54 106
-4 0 7 -48 23 -107 43 -158 43 -154 20 -213 -14 -36 -17 -56 -10 -61 9 -5 -21
-18 -43 -19 -5 0 -8 94 -8 210 0 116 4 210 8 210 20 0 29 47 21 110 -5 36 -13
153 -17 260 -7 158 -6 200 5 223 7 15 17 27 21 27 5 0 30 -14 56 -31 37 -23
46 -33 37 -42 -8 -8 -3 -18 20 -39 35 -32 45 -34 56 -13 8 13 16 10 57 -16 35
-21 52 -27 59 -20 8 8 5 16 -12 27 -21 15 -21 17 -6 34 11 12 13 20 6 25 -18
11 -13 19 29 45 22 14 40 28 40 33 0 4 9 18 20 29 l20 22 -27 11 c-27 11 -27
12 -8 23 17 9 18 14 7 31 -12 21 -11 21 115 20 146 -1 234 -10 216 -22 -10 -6
-10 -14 2 -38 18 -34 29 -38 20 -6 -7 22 -7 22 9 2 9 -12 15 -15 16 -7 0 7 5
10 10 7 6 -3 10 -1 10 5 0 6 5 8 10 5 6 -3 10 1 10 9 0 18 -20 32 -29 20 -3
-5 -19 -10 -36 -12 l-30 -2 35 16 c19 8 51 16 70 16 l35 0 -28 12 -28 11 70
68 70 67 171 0 171 0 -3 -70z m629 56 c-11 -8 -25 -12 -33 -9 -9 3 -14 -2 -14
-17 0 -19 -4 -21 -27 -17 l-28 6 28 -12 c15 -6 27 -14 27 -18 0 -7 -56 -79
-64 -82 -6 -2 -78 81 -115 133 l-19 25 132 2 c115 3 129 1 113 -11z m78 -7 c0
-8 19 -17 52 -24 62 -12 73 -20 38 -29 -14 -4 -25 -11 -25 -17 0 -10 59 -7
135 7 35 6 39 6 27 -8 -11 -14 -8 -17 19 -27 49 -17 68 -14 93 16 22 26 25 26
64 15 25 -8 42 -19 45 -32 3 -11 1 -20 -5 -20 -5 0 -16 -7 -24 -15 -14 -13
-13 -15 3 -17 10 -1 -115 -5 -277 -8 -162 -3 -298 -3 -302 0 -11 8 63 91 74
84 6 -4 8 -2 5 3 -6 9 9 34 48 80 13 15 30 11 30 -8z m119 2 c18 -7 18 -8 2
-14 -22 -9 -68 2 -60 14 6 11 31 11 58 0z m191 -31 c14 0 25 -5 25 -11 0 -14
-71 -3 -120 18 -31 13 -33 16 -15 22 13 5 32 1 53 -11 18 -10 44 -18 57 -18z
m92 34 c-3 -3 -12 -4 -19 -1 -8 3 -5 6 6 6 11 1 17 -2 13 -5z m-2226 -102 c-7
-2 -18 1 -23 6 -8 8 -4 9 13 5 13 -4 18 -8 10 -11z m59 -42 c0 -5 -4 -10 -10
-10 -5 0 -8 -6 -6 -12 1 -7 1 -10 -1 -5 -3 4 -12 7 -21 7 -15 1 -14 3 2 15 23
17 36 19 36 5z m54 -12 c-3 -4 0 -8 6 -8 14 0 70 -41 70 -52 0 -4 -7 -8 -15
-8 -8 0 -15 7 -15 15 0 8 -4 15 -9 15 -21 0 -67 -22 -84 -41 -23 -24 -49 -26
-40 -1 4 9 13 23 20 30 7 7 13 22 13 32 0 17 15 25 47 26 7 1 10 -3 7 -8z
m-192 -23 c-3 -13 1 -16 12 -12 10 4 16 1 16 -8 0 -8 -5 -15 -10 -15 -18 0
-52 38 -45 50 10 17 30 6 27 -15z m2421 18 c-7 -2 -21 -2 -30 0 -10 3 -4 5 12
5 17 0 24 -2 18 -5z m-2466 -28 c0 -17 -13 -20 -21 -6 -4 5 0 12 6 14 7 3 13
6 14 6 0 1 1 -6 1 -14z m2433 -25 c0 -5 -5 -10 -11 -10 -5 0 -7 5 -4 10 3 6 8
10 11 10 2 0 4 -4 4 -10z m-2320 -14 c0 -3 -4 -8 -10 -11 -5 -3 -10 -1 -10 4
0 6 5 11 10 11 6 0 10 -2 10 -4z m-120 -30 c0 -3 -4 -8 -10 -11 -5 -3 -10 -1
-10 4 0 6 5 11 10 11 6 0 10 -2 10 -4z m2480 -291 c0 -118 -2 -215 -5 -215 -3
0 -23 11 -45 25 -29 19 -40 21 -40 11 0 -8 20 -27 45 -43 32 -20 45 -35 45
-50 0 -14 -6 -23 -15 -23 -17 0 -20 -16 -5 -25 17 -11 11 -40 -12 -54 -19 -12
-24 -11 -40 9 -10 12 -16 26 -13 30 11 17 -22 24 -103 21 -59 -2 -82 1 -78 8
4 6 2 11 -5 11 -6 0 -9 8 -6 20 5 21 -47 97 -64 93 -13 -4 -27 29 -25 64 0 17
-1 30 -4 28 -11 -7 -31 12 -34 29 -1 10 -9 22 -17 27 -8 5 -9 9 -4 9 6 0 3 4
-5 10 -8 5 -11 12 -7 16 4 4 19 -3 33 -17 18 -17 23 -19 18 -6 -3 9 -10 17
-15 17 -18 0 -8 30 14 41 12 6 33 21 47 33 14 11 20 15 13 7 -12 -14 -7 -41 9
-41 5 0 7 4 4 9 -3 4 3 16 14 26 21 19 268 143 288 144 9 1 12 -48 12 -214z
m-1255 110 c0 -20 -4 -35 -10 -35 -13 0 -16 23 -9 59 7 32 17 19 19 -24z
m-169 11 c-4 -15 0 -28 9 -36 13 -11 15 -8 15 14 0 22 4 27 22 24 25 -4 37
-28 14 -28 -9 0 -16 -4 -16 -10 0 -5 7 -6 17 -3 10 4 14 2 10 -4 -8 -13 -77
-15 -77 -2 0 5 -5 9 -11 9 -5 0 -8 -4 -4 -9 3 -5 1 -12 -4 -15 -11 -7 -21 17
-21 51 0 21 3 23 14 14 10 -9 15 -8 20 4 9 24 19 17 12 -9z m132 -18 c2 -16
-1 -28 -7 -28 -6 0 -11 12 -11 26 0 14 -4 23 -9 20 -5 -3 -7 -15 -4 -26 3 -11
0 -20 -6 -20 -6 0 -11 13 -11 29 0 23 4 28 23 27 16 -1 23 -8 25 -28z m97 1
c0 -17 -6 -25 -22 -27 -19 -3 -23 1 -23 21 0 25 14 38 35 33 6 -2 10 -14 10
-27z m160 20 c4 -6 4 -13 0 -17 -4 -4 -10 -1 -12 6 -7 19 -23 3 -23 -24 0 -24
14 -33 23 -14 3 6 4 5 3 -2 -4 -20 -35 -22 -42 -3 -14 37 32 86 51 54z m535 1
c0 -5 -7 -10 -15 -10 -8 0 -15 5 -15 10 0 6 7 10 15 10 8 0 15 -4 15 -10z
m-630 -30 c0 -38 -20 -40 -21 -2 -2 23 -2 24 -6 5 -6 -31 -23 -29 -23 2 0 20
5 25 25 25 21 0 25 -5 25 -30z m126 -15 c-4 -19 -11 -35 -17 -35 -8 0 -6 29 7
69 9 27 16 1 10 -34z m-576 -11 c0 -25 -4 -43 -9 -40 -5 4 -8 14 -6 24 2 9 4
27 4 40 2 42 11 22 11 -24z m54 24 c8 -33 7 -48 -4 -48 -5 0 -10 11 -10 25 0
14 -5 25 -11 25 -5 0 -7 5 -4 10 10 17 22 11 29 -12z m-93 -25 c12 -33 5 -56
-18 -51 -23 4 -40 57 -22 69 22 14 29 11 40 -18z m645 2 c-4 -14 -2 -25 4 -25
5 0 10 9 10 20 0 11 6 20 14 20 12 0 12 -6 3 -29 -9 -24 -14 -28 -31 -21 -12
4 -20 10 -18 14 1 3 2 15 2 26 0 11 5 20 11 20 7 0 9 -10 5 -25z m84 1 c21
-41 -2 -70 -38 -48 -9 6 -10 16 -1 40 13 38 21 40 39 8z m293 -97 c32 -30 71
-65 86 -79 49 -46 83 -70 92 -64 5 3 7 -1 4 -8 -3 -7 8 -22 24 -33 16 -10 27
-23 25 -27 -3 -5 -12 -2 -20 6 -8 9 -22 13 -32 10 -12 -4 -13 -3 -4 3 9 7 -16
34 -90 100 -146 129 -186 166 -164 155 11 -5 46 -34 79 -63z m-1523 26 c22
-26 -12 -49 -37 -24 -9 9 -8 15 0 25 15 17 22 17 37 -1z m817 -120 c-4 -50 -9
-99 -13 -109 -12 -30 -29 -11 -32 38 -2 25 -7 44 -12 41 -15 -10 -50 14 -60
41 -6 14 -14 23 -19 20 -5 -3 -15 2 -22 11 -12 15 -11 16 9 11 17 -5 22 -2 22
13 0 10 7 19 15 19 10 0 15 -10 15 -29 0 -37 24 -59 45 -41 8 7 15 21 15 32 0
28 19 60 32 52 7 -5 9 -37 5 -99z m241 79 c25 -17 29 -58 11 -98 -10 -22 -27
-32 -81 -49 -9 -3 -19 -19 -23 -36 -8 -36 -35 -42 -35 -8 0 12 9 64 21 115
l21 92 32 0 c17 0 42 -7 54 -16z m-678 -47 c4 -5 6 4 4 20 -4 24 -3 25 5 8 8
-17 10 -17 10 -3 1 9 5 19 10 22 5 4 7 -4 4 -16 -5 -23 -5 -23 11 -3 17 20 17
20 10 -5 -9 -37 -28 -53 -53 -45 -17 5 -21 14 -20 43 1 27 3 31 6 12 3 -14 8
-29 13 -33z m848 30 c4 -14 7 -16 13 -5 6 9 9 5 9 -14 0 -32 -15 -44 -35 -28
-8 6 -18 9 -24 6 -13 -8 -19 36 -6 50 15 17 37 13 43 -9z m-971 -18 c-8 -21
-13 -26 -15 -15 -2 10 2 23 8 31 18 22 20 18 7 -16z m268 15 c14 -3 25 -15 28
-30 4 -23 4 -23 -25 -6 -16 9 -37 26 -46 36 -16 18 -16 19 1 13 11 -4 29 -10
42 -13z m845 -23 c0 -13 2 -14 9 -2 5 8 7 21 3 29 -3 10 -1 13 6 8 16 -9 15
-49 0 -64 -9 -9 -9 -12 0 -12 7 0 12 4 12 8 0 5 7 17 15 28 14 19 14 19 15 -2
0 -26 -29 -64 -50 -67 -8 -2 -21 -6 -28 -11 -20 -12 -25 -2 -24 49 1 35 -3 48
-16 52 -14 6 -13 8 8 13 28 8 50 -5 50 -29z m-1126 -31 c3 0 12 14 21 30 9 17
21 30 27 30 9 0 9 -3 0 -12 -28 -28 -3 -92 29 -72 17 10 10 34 -8 27 -14 -5
-16 -3 -6 7 17 19 43 4 43 -25 0 -18 -5 -25 -19 -25 -21 0 -45 -23 -34 -33 3
-4 -5 -7 -19 -7 -18 0 -25 5 -24 17 0 12 -7 19 -21 21 -27 4 -53 38 -53 67 1
17 3 17 15 -6 8 -15 22 -30 32 -33 16 -6 16 -6 0 12 -9 10 -17 29 -17 43 1 22
2 21 15 -8 8 -18 16 -33 19 -33z m523 44 c8 -22 -15 -43 -27 -24 -5 8 -10 21
-10 28 0 17 30 15 37 -4z m733 -9 c0 -21 -27 -26 -33 -5 -3 11 0 21 7 23 15 6
26 -1 26 -18z m-848 -5 c14 -10 28 -17 30 -14 15 14 0 -105 -16 -128 -24 -37
-41 -35 -56 5 -7 17 -21 53 -31 79 -10 26 -19 54 -19 62 0 23 61 21 92 -4z
m285 12 c10 -6 10 -20 -2 -66 -23 -89 -18 -138 13 -129 12 3 18 -2 19 -16 1
-13 -6 -21 -20 -24 -12 -2 -3 -5 20 -6 33 -1 45 4 58 22 15 21 15 22 -16 27
-51 8 -49 30 3 30 43 0 44 -1 40 -29 -3 -23 0 -30 18 -36 12 -4 24 -4 27 -1 4
3 12 1 20 -5 10 -9 21 -4 48 24 28 29 35 44 34 74 0 36 -1 37 -12 13 -6 -14
-19 -44 -30 -67 -11 -24 -23 -43 -28 -43 -16 0 -9 36 21 110 17 40 28 75 25
78 -3 3 -5 0 -5 -7 0 -8 -8 -11 -19 -8 -15 4 -22 -8 -41 -74 -15 -53 -27 -79
-37 -79 -15 0 -13 34 3 88 5 15 4 15 -6 0 -12 -19 -80 -26 -80 -8 0 6 7 10 15
10 28 0 84 35 89 57 3 11 9 29 13 39 4 12 3 15 -5 10 -7 -4 -12 -1 -12 7 0 9
10 15 25 15 20 0 25 -6 25 -25 0 -22 3 -24 34 -19 30 5 35 2 46 -24 7 -18 11
-55 8 -90 -5 -68 -2 -67 32 10 27 62 39 80 51 80 16 0 10 -26 -22 -88 -17 -34
-27 -67 -23 -73 4 -7 3 -9 -3 -6 -6 4 -16 0 -23 -8 -16 -19 -40 -19 -40 -1 0
8 -4 18 -10 21 -5 3 -7 0 -4 -8 5 -15 -22 -27 -62 -27 -11 0 -31 -12 -45 -27
l-24 -28 25 22 c21 18 36 21 98 20 48 0 72 -5 72 -12 0 -7 12 -25 28 -40 l27
-28 -133 7 c-73 4 -140 9 -150 12 -10 3 -8 0 5 -8 22 -13 22 -13 3 -38 -11
-14 -20 -31 -20 -37 0 -7 -4 -13 -10 -13 -5 0 -11 17 -12 38 -1 20 -4 1 -7
-43 -5 -65 -9 -80 -23 -83 -16 -3 -18 6 -18 85 0 101 10 129 35 98 16 -20 16
-20 6 1 -7 15 -6 26 4 41 13 19 13 21 -13 21 -33 0 -48 -8 -33 -18 9 -5 9 -13
0 -33 -14 -32 -20 -33 -42 -9 -20 22 -101 29 -113 10 -5 -7 -9 -56 -10 -110
l-2 -96 42 -16 c55 -21 162 -22 170 -1 7 19 43 19 79 0 25 -13 31 -13 53 2 23
14 26 14 44 -2 18 -17 19 -16 26 10 4 16 2 36 -3 45 -11 17 -6 70 6 70 13 0
76 -59 64 -60 -7 0 -13 5 -13 11 0 6 -7 3 -16 -6 -15 -15 -15 -17 2 -30 14
-10 21 -10 26 -2 4 7 8 9 9 5 1 -5 3 -12 4 -18 1 -5 3 -17 4 -26 1 -10 9 -14
24 -12 18 2 22 9 20 33 l-2 30 10 -34 c15 -50 23 -29 10 25 -14 56 -7 70 13
23 13 -30 15 -32 21 -14 15 46 35 85 45 85 6 0 10 -32 10 -77 l0 -78 27 58
c26 58 42 61 43 10 0 -30 26 -30 36 -1 l7 23 8 -23 c9 -24 29 -22 29 3 0 7 15
28 33 46 l32 34 6 -70 c4 -38 7 -134 8 -212 l1 -143 25 10 c13 5 27 5 29 1 3
-5 24 -11 47 -15 35 -6 39 -9 29 -21 -7 -8 -20 -15 -29 -15 -13 0 -14 2 -2 9
11 7 4 12 -25 20 -48 13 -54 14 -54 2 0 -5 14 -12 30 -16 17 -4 28 -10 25 -15
-8 -13 26 -22 40 -10 6 5 15 6 19 2 4 -4 15 2 23 13 14 18 15 18 9 1 -5 -14
-3 -17 11 -11 30 11 121 17 98 6 -19 -9 -19 -10 2 -10 28 -1 54 -11 49 -20 -2
-3 6 -6 19 -6 12 0 21 4 19 10 -2 6 7 11 20 11 14 1 27 -4 30 -12 3 -9 0 -11
-11 -7 -11 4 -14 2 -9 -5 4 -7 22 -12 41 -12 29 0 33 -3 31 -25 0 -15 -7 -25
-16 -25 -12 -1 -11 -3 3 -11 9 -5 17 -19 17 -29 0 -19 -8 -20 -132 -20 -73 0
-272 -2 -443 -5 -205 -3 -300 -1 -280 5 22 7 31 16 32 32 1 13 5 34 8 46 4 15
2 21 -5 17 -5 -3 -10 -1 -10 4 0 6 5 11 10 11 6 0 10 5 10 10 0 6 -22 10 -50
10 l-50 0 0 80 0 80 44 0 c28 0 46 -5 49 -14 7 -19 -1 -26 -30 -26 -12 0 -23
-5 -23 -11 0 -8 12 -10 35 -6 20 3 37 1 41 -5 5 -7 1 -9 -9 -5 -12 5 -17 1
-17 -13 0 -15 -7 -20 -25 -20 -16 0 -25 -6 -25 -15 0 -10 10 -15 30 -15 26 0
30 -4 35 -37 3 -21 8 -46 9 -55 2 -9 -1 -19 -8 -22 -6 -2 -3 -5 7 -5 22 -1 23
40 2 99 -25 71 -33 68 150 63 l165 -4 0 41 c0 33 -3 41 -17 39 -10 -1 -36 0
-58 1 -29 2 -33 4 -15 7 14 3 31 9 37 15 7 6 19 8 28 5 8 -4 16 -3 19 1 4 7
-14 38 -24 40 -3 0 -12 3 -20 6 -8 2 -34 6 -57 8 -37 3 -43 1 -44 -17 -2 -18
-2 -17 -6 3 -2 12 -9 22 -14 22 -5 0 -9 12 -10 28 l-1 27 -14 -32 c-7 -17 -18
-35 -25 -38 -6 -4 -4 7 5 23 20 39 20 39 -6 38 -20 -1 -23 -6 -20 -33 2 -22
-2 -34 -15 -42 -14 -8 -15 -11 -3 -12 8 -1 18 -1 22 0 4 0 5 -5 3 -12 -6 -15
-55 -19 -55 -4 0 6 -7 2 -15 -9 -14 -18 -15 -17 -4 8 7 15 16 25 20 22 5 -3 6
3 2 12 -5 14 -3 16 12 11 14 -6 16 -5 6 7 -8 9 -8 21 -1 40 14 38 4 32 -19
-11 l-20 -38 -1 38 c0 28 3 36 13 31 9 -5 9 -4 1 5 -6 7 -24 11 -40 9 -24 -2
-30 -9 -35 -38 -6 -30 -7 -31 -8 -7 -1 33 -21 36 -21 3 0 -13 -7 -26 -15 -29
-11 -5 -13 0 -8 23 3 19 1 30 -6 30 -6 0 -11 -15 -11 -32 0 -18 -4 -28 -8 -22
-4 6 -20 14 -35 18 -20 5 -27 11 -23 21 3 9 -1 15 -9 15 -8 0 -15 -5 -15 -12
0 -9 -3 -9 -12 0 -7 7 -26 12 -43 12 -19 0 -25 -3 -17 -9 11 -6 11 -10 0 -19
-9 -7 -19 -8 -28 -1 -13 8 -13 10 0 19 11 7 1 10 -35 10 -28 0 -57 -6 -64 -12
-11 -10 -13 -10 -7 0 5 8 -1 12 -18 12 -14 0 -26 -6 -26 -12 0 -10 -2 -10 -8
0 -7 10 -19 9 -60 -4 -29 -10 -52 -23 -52 -29 0 -7 -7 -15 -15 -19 -16 -6 -21
18 -17 77 2 33 -10 35 -35 5 -39 -48 -60 -61 -80 -48 -16 10 -16 10 4 5 12 -3
24 -2 27 3 9 15 -126 15 -136 0 -5 -9 -10 -10 -15 -2 -9 12 -35 15 -75 8 -20
-4 -28 -12 -31 -32 -4 -25 -4 -24 -6 5 -1 29 -3 32 -23 25 -23 -7 -129 -8
-158 -1 -8 2 -19 9 -23 14 -5 6 -6 -5 -3 -22 4 -22 1 -33 -7 -34 -64 -7 -62
-7 -42 7 10 7 23 15 29 17 14 5 -17 37 -36 37 -17 1 30 40 48 40 8 0 14 10 14
25 0 32 -13 32 -30 -1 -17 -30 -50 -52 -50 -32 0 9 -3 9 -9 -2 -6 -8 -7 -18
-4 -23 3 -5 -4 -4 -16 2 -22 12 -25 20 -13 37 8 12 52 14 52 2 0 -17 15 -7 26
17 7 14 8 25 2 27 -6 2 -5 15 2 32 l11 29 23 -44 c13 -24 22 -47 19 -51 -2 -5
0 -8 5 -8 14 0 22 26 22 66 0 19 2 34 4 34 2 0 11 2 19 6 10 4 16 -6 21 -38
l8 -43 16 41 c10 22 24 52 34 65 14 21 14 15 -3 -35 -27 -83 -25 -96 10 -96
16 0 36 -2 43 -5 11 -4 13 3 10 30 -7 57 5 82 50 109 45 27 58 22 58 -22 0
-16 -7 -26 -20 -29 -15 -4 -18 -11 -14 -29 5 -21 3 -24 -22 -24 -20 0 -25 -3
-17 -11 17 -17 233 -15 244 2 6 9 9 10 9 2 0 -15 80 -15 98 -1 19 16 16 197
-4 226 -8 12 -21 22 -27 22 -8 0 -9 -2 -1 -8 25 -16 32 -51 28 -132 -2 -47 -6
-91 -9 -98 -10 -27 -25 0 -25 44 0 32 -4 44 -15 44 -10 0 -15 -10 -15 -27 0
-33 -16 -61 -27 -49 -4 4 -10 52 -13 107 -4 84 -7 97 -20 89 -10 -6 -11 -10
-2 -10 8 0 12 -16 12 -45 0 -25 -4 -45 -10 -45 -14 0 -32 38 -29 63 2 26 -10
57 -22 57 -5 0 -4 -9 3 -20 10 -15 10 -27 1 -50 -10 -27 -8 -37 12 -78 35 -69
40 -92 20 -92 -10 0 -24 19 -37 50 -12 28 -26 49 -32 47 -6 -2 -13 -23 -16
-48 -3 -24 -9 -43 -15 -41 -14 3 -23 41 -31 134 -5 63 -4 82 7 90 12 8 11 9
-1 5 -8 -2 -16 -14 -18 -26 -3 -20 -8 -22 -53 -19 -27 2 -49 6 -49 11 0 4 -6
20 -15 37 -21 40 1 53 30 17 25 -33 43 -34 47 -4 2 14 10 23 23 23 73 6 80 7
59 11 -15 3 -21 12 -21 33 0 26 4 30 28 30 22 0 32 -8 45 -32 10 -18 19 -28
21 -22 2 6 26 9 61 7 45 -3 52 -1 34 7 -26 11 -24 30 9 84 11 17 19 42 19 56
l1 25 21 -29 c20 -26 22 -27 29 -10 6 15 8 12 8 -13 1 -44 10 -63 31 -63 23 0
28 14 36 98 4 37 11 73 17 80 10 13 75 16 94 4z m-429 -29 c27 -38 72 -147 72
-174 0 -21 -1 -22 -20 -4 -11 10 -22 26 -25 35 -5 16 -10 16 -36 7 -25 -10
-30 -16 -27 -42 3 -26 0 -30 -24 -32 -31 -2 -53 20 -63 65 -9 45 8 40 30 -8
24 -54 29 -45 7 13 -10 26 -20 45 -23 43 -2 -2 -4 10 -4 27 0 37 47 97 76 97
10 0 26 -12 37 -27z m784 -2 c-8 -4 -12 -16 -10 -26 2 -10 -3 -20 -9 -22 -8
-3 -13 5 -13 20 0 28 7 37 29 37 13 0 13 -2 3 -9z m278 -9 c0 -13 -12 -22 -22
-16 -10 6 -1 24 13 24 5 0 9 -4 9 -8z m-986 -65 c6 -15 7 -30 3 -33 -10 -10
-16 -2 -27 35 -11 40 10 38 24 -2z m-467 -22 c-12 -13 -37 -9 -37 5 0 5 3 15
6 23 5 14 8 14 24 0 14 -12 15 -19 7 -28z m1382 3 c-12 -22 -12 -22 -19 -3 -5
13 -1 24 9 32 21 15 26 1 10 -29z m-1137 -10 c5 1 7 -2 4 -6 -3 -5 6 -37 19
-71 34 -84 33 -106 -5 -61 -27 32 -30 34 -45 19 -15 -15 -15 -19 -2 -46 10
-18 12 -35 7 -43 -14 -22 -35 3 -81 93 -37 76 -39 82 -23 94 21 15 60 17 69 3
4 -6 -6 -7 -26 -3 -28 5 -30 4 -21 -13 6 -10 17 -27 24 -37 13 -18 14 -18 32
2 17 19 17 23 3 60 -19 46 -10 62 17 29 10 -13 23 -22 28 -20z m1073 20 c6 -4
2 -8 -7 -8 -10 0 -18 7 -18 17 0 9 3 12 8 7 4 -5 12 -12 17 -16z m-1225 -20
c0 -5 -6 -8 -14 -8 -18 0 -29 27 -13 33 12 4 27 -10 27 -25z m1134 21 c8 12
71 -10 95 -34 12 -12 12 -17 1 -30 -11 -14 -16 -13 -46 4 l-33 20 -15 -24
c-21 -32 -20 -42 4 -48 11 -3 20 -12 20 -21 0 -19 -31 -21 -48 -4 -9 9 -13 7
-18 -6 -4 -11 2 -26 16 -41 29 -30 18 -45 -17 -25 -49 28 -51 42 -11 120 20
39 34 79 31 88 -4 13 -3 14 5 3 7 -9 12 -10 16 -2z m-1432 -41 c-7 -7 -12 -8
-12 -2 0 14 12 26 19 19 2 -3 -1 -11 -7 -17z m1661 -33 c-2 -6 -12 -11 -23
-11 -23 0 -23 25 0 43 12 9 16 8 21 -5 3 -9 4 -22 2 -27z m-1503 16 c0 -3 -4
-12 -9 -20 -11 -16 -32 -6 -25 13 5 12 34 19 34 7z m233 -4 c4 3 7 1 7 -5 0
-17 -16 -15 -31 6 -12 15 -12 16 2 5 9 -7 19 -10 22 -6z m307 -9 c0 -12 -1
-19 -3 -17 -1 2 -9 12 -16 22 -12 14 -11 17 3 17 10 0 16 -8 16 -22z m1120 8
c0 -3 -4 -8 -10 -11 -5 -3 -10 -1 -10 4 0 6 5 11 10 11 6 0 10 -2 10 -4z
m-1540 -24 c0 -5 -11 -14 -25 -20 -17 -8 -25 -20 -25 -38 0 -23 4 -25 33 -23
48 4 73 -8 87 -41 22 -54 -19 -120 -76 -120 -36 0 -59 26 -48 54 5 13 9 12 24
-6 16 -20 20 -21 35 -8 21 17 34 50 28 68 -3 7 -22 12 -46 12 -69 0 -99 54
-61 108 15 21 74 32 74 14z m911 -15 c-10 -9 -11 -8 -5 6 3 10 9 15 12 12 3
-3 0 -11 -7 -18z m654 14 c-3 -6 1 -13 9 -18 19 -11 59 -99 51 -113 -3 -5 1
-10 9 -10 9 0 16 -6 16 -14 0 -8 -8 -13 -17 -11 -13 2 -17 10 -16 28 1 17 -4
28 -16 32 -24 7 -74 102 -58 108 20 9 29 8 22 -2z m-253 -18 c18 -16 25 -53
10 -53 -4 0 -13 9 -20 20 -13 22 -42 27 -42 8 0 -6 5 -26 12 -44 23 -64 -28
-117 -84 -88 -16 8 -28 21 -28 30 0 11 4 12 19 4 11 -5 27 -10 36 -10 23 0 35
40 20 70 -29 58 30 106 77 63z m-1232 -74 c12 -23 19 -43 17 -45 -5 -6 -47 63
-47 77 0 18 10 8 30 -32z m1210 25 c0 -8 -4 -12 -10 -9 -5 3 -10 10 -10 16 0
5 5 9 10 9 6 0 10 -7 10 -16z m-129 -4 c5 0 9 -9 9 -20 0 -24 -8 -25 -32 -3
-22 20 -24 37 -2 29 9 -3 20 -6 25 -6z m215 -58 c7 -31 13 -48 13 -38 1 11 13
40 29 65 l27 46 3 -65 3 -66 -47 -49 c-34 -35 -46 -43 -42 -27 9 34 -8 35 -22
2 -16 -38 -25 -38 -36 2 -13 44 -26 44 -46 0 -14 -33 -16 -35 -17 -11 -1 14 3
29 9 35 5 5 19 27 29 49 20 40 20 40 21 11 0 -40 12 -25 20 27 l7 42 8 -45 c8
-39 10 -42 15 -20 4 14 5 45 3 69 -5 60 8 45 23 -27z m344 49 c0 -5 -5 -11
-11 -13 -7 -2 -4 -25 10 -66 12 -34 22 -73 23 -87 1 -14 6 -25 11 -25 5 0 7
-7 4 -15 -4 -8 -3 -17 2 -19 10 -6 35 -116 27 -123 -3 -3 -8 8 -12 23 -4 16
-11 34 -16 41 -5 7 -7 16 -4 22 3 5 -3 30 -14 56 -11 26 -20 55 -20 65 0 11
-6 23 -12 27 -7 4 -14 17 -15 28 -2 11 -5 34 -7 52 -4 29 3 40 27 42 4 1 7 -3
7 -8z m-500 -31 c0 -19 -5 -30 -14 -30 -12 0 -12 5 -3 30 6 17 13 30 14 30 2
0 3 -13 3 -30z m-1584 1 c-3 -9 -7 -31 -11 -48 -4 -18 -10 -33 -15 -33 -4 0
-4 18 1 41 5 22 7 44 5 48 -3 4 1 8 10 8 8 0 12 -7 10 -16z m281 -118 c7 -3
10 4 7 19 -4 21 -4 21 4 3 11 -24 5 -45 -13 -45 -8 0 -17 -5 -20 -10 -4 -6 -2
-9 3 -8 6 2 10 0 11 -4 3 -26 -1 -30 -13 -13 -8 11 -12 37 -10 64 2 25 1 38
-2 28 -3 -9 -10 -15 -15 -12 -5 4 -9 2 -9 -4 0 -5 5 -11 12 -13 6 -2 9 -11 6
-18 -7 -23 -32 29 -30 62 1 16 -4 31 -14 36 -11 6 -13 12 -6 16 12 7 21 -5 31
-42 7 -25 8 -23 22 22 l14 49 5 -63 c3 -36 10 -65 17 -67z m779 99 c22 -14 56
-111 35 -98 -5 4 -12 -3 -16 -14 -7 -23 -72 -70 -96 -70 -13 0 -17 14 -22 61
-3 34 -3 77 0 95 5 32 8 34 47 34 22 0 46 -4 52 -8z m259 -18 c62 -24 10 -174
-60 -174 -38 0 -65 33 -65 81 0 58 31 99 75 99 18 0 41 -3 50 -6z m-955 -29
c7 -9 8 -15 2 -15 -5 0 -12 7 -16 15 -3 8 -4 15 -2 15 2 0 9 -7 16 -15z m1142
-7 c-6 -6 -16 -7 -22 -3 -9 6 -9 9 1 16 17 10 34 0 21 -13z m-1018 -3 c-7 -17
-20 -20 -28 -6 -7 10 3 21 20 21 8 0 11 -6 8 -15z m69 -22 c-3 -7 -13 -13 -23
-13 -18 0 -21 15 -7 37 10 17 37 -6 30 -24z m894 13 c-2 -6 -11 -12 -20 -14
-13 -3 -16 11 -8 35 1 1 8 0 16 -4 9 -3 14 -11 12 -17z m568 4 c-3 -5 -10 -10
-16 -10 -5 0 -9 5 -9 10 0 6 7 10 16 10 8 0 12 -4 9 -10z m-1245 -33 c0 -5 -4
-5 -10 -2 -5 3 -10 14 -10 23 0 15 2 15 10 2 5 -8 10 -19 10 -23z m762 6 c-3
-16 -7 -22 -10 -15 -4 13 4 42 11 42 2 0 2 -12 -1 -27z m-1345 -5 c-3 -8 -6
-5 -6 6 -1 11 2 17 5 13 3 -3 4 -12 1 -19z m73 -103 c0 -3 -11 -5 -24 -5 -25
0 -33 19 -34 79 -1 19 4 15 29 -23 16 -26 29 -49 29 -51z m90 38 c0 -29 -2
-29 -19 5 -10 18 -9 22 4 22 10 0 15 -9 15 -27z m375 -2 c3 -5 1 -12 -5 -16
-5 -3 -10 1 -10 9 0 18 6 21 15 7z m364 -18 c10 -26 10 -27 -4 -9 -8 11 -15
14 -15 8 0 -7 -12 -12 -27 -12 -28 0 -26 10 4 15 10 1 17 8 16 14 -6 22 14 10
26 -16z m951 -8 c0 -5 -5 -3 -10 5 -5 8 -10 20 -10 25 0 6 5 3 10 -5 5 -8 10
-19 10 -25z m-1560 -15 c0 -11 -4 -20 -9 -20 -5 0 -7 9 -4 20 3 11 7 20 9 20
2 0 4 -9 4 -20z m1564 -15 c3 -8 1 -15 -4 -15 -6 0 -10 7 -10 15 0 8 2 15 4
15 2 0 6 -7 10 -15z m-559 -122 c-7 -79 -15 -79 -15 1 0 41 4 65 10 61 5 -3 8
-31 5 -62z m-368 15 c-3 -8 -6 -5 -6 6 -1 11 2 17 5 13 3 -3 4 -12 1 -19z
m-762 2 c-3 -5 -2 -10 3 -10 5 0 12 -9 15 -19 3 -14 1 -18 -9 -14 -8 3 -12 9
-9 13 3 5 1 11 -5 15 -13 8 -13 25 1 25 5 0 7 -4 4 -10z m55 -17 c0 -30 -9
-27 -15 6 -2 11 0 21 6 21 5 0 9 -12 9 -27z m28 5 c10 -12 10 -18 1 -24 -7 -4
-9 -3 -5 4 3 6 2 13 -4 17 -5 3 -10 11 -10 17 0 6 1 9 3 7 1 -2 8 -11 15 -21z
m412 12 c0 -5 -5 -10 -11 -10 -5 0 -7 5 -4 10 3 6 8 10 11 10 2 0 4 -4 4 -10z
m-643 -16 c7 -1 15 2 19 7 3 5 11 9 17 9 7 0 6 -4 -3 -10 -11 -7 -11 -10 -2
-10 7 0 10 -4 7 -10 -8 -13 -215 -13 -215 0 0 14 132 32 155 20 6 -2 16 -5 22
-6z m313 -35 c0 -29 -13 -38 -25 -19 -3 6 -1 10 5 10 6 0 8 5 5 10 -4 6 -10 8
-15 5 -5 -3 -8 3 -7 13 2 33 37 14 37 -19z m650 31 c13 -8 13 -10 -2 -10 -9 0
-19 -6 -21 -12 -3 -7 -6 -3 -6 10 -1 24 6 27 29 12z m-326 -38 c-2 -34 -2 -34
36 -30 21 2 36 0 34 -4 -2 -3 0 -9 6 -13 18 -11 11 -35 -10 -35 -11 0 -20 5
-20 10 0 6 -4 10 -10 10 -5 0 -10 -7 -10 -15 0 -8 5 -15 12 -15 46 0 66 -84
24 -100 -41 -15 -85 4 -86 38 0 18 37 15 44 -5 5 -13 9 -14 19 -4 9 10 8 15
-7 25 -11 6 -27 18 -36 27 -10 10 -31 14 -56 13 l-39 -3 35 7 c22 4 39 16 46
30 13 27 8 62 -10 62 -6 0 -4 5 4 10 13 9 13 11 0 20 -12 7 -11 9 6 8 17 -2
20 -8 18 -36z m386 2 c0 -19 -4 -33 -8 -30 -5 3 -25 6 -45 8 -20 1 -34 5 -31
9 2 4 14 5 27 2 22 -5 22 -5 2 12 -19 16 -19 16 7 1 35 -21 41 -20 29 3 -10
18 -6 31 11 31 4 0 8 -16 8 -36z m410 27 c0 -6 -4 -13 -10 -16 -14 -9 -12 -25
3 -25 11 0 11 -9 3 -47 l-11 -46 -6 54 c-3 30 -3 62 -1 72 5 18 22 24 22 8z
m-734 -23 c5 -7 3 -8 -6 -3 -10 6 -12 4 -7 -8 4 -11 1 -17 -8 -17 -8 0 -13 9
-12 20 1 22 22 27 33 8z m874 2 c13 -8 13 -10 -2 -10 -9 0 -20 5 -23 10 -8 13
5 13 25 0z m-1435 -10 c3 -5 2 -10 -4 -10 -5 0 -13 5 -16 10 -3 6 -2 10 4 10
5 0 13 -4 16 -10z m452 -10 c-1 -12 -5 -16 -10 -11 -5 5 -6 14 -3 20 11 16 15
13 13 -9z m533 5 c-7 -8 -19 -15 -26 -15 -8 0 -11 6 -8 15 4 8 15 15 26 15 17
0 18 -3 8 -15z m-713 -30 c0 -8 -4 -12 -9 -9 -4 3 -8 0 -8 -7 0 -7 -2 -10 -5
-7 -7 7 5 38 14 38 4 0 8 -7 8 -15z m431 -13 c6 -9 12 -37 12 -64 0 -60 -27
-93 -68 -83 -40 10 -46 20 -46 82 -1 32 -5 61 -10 64 -4 4 -3 10 3 13 6 4 11
2 11 -4 0 -6 5 -8 10 -5 6 4 8 10 6 14 -9 14 69 -2 82 -17z m72 -63 c0 -77 -1
-79 -24 -79 -24 0 -25 3 -28 83 l-3 83 28 -4 c27 -4 27 -5 27 -83z m770 64 c0
-16 -23 -43 -38 -43 -15 0 -15 2 -2 10 13 9 7 14 -12 11 -5 0 -8 10 -8 23 0
23 2 24 30 15 17 -6 30 -13 30 -16z m-1326 1 c19 -19 22 -114 4 -132 -7 -7
-31 -12 -55 -12 l-43 0 0 80 0 80 39 0 c23 0 46 -7 55 -16z m126 -59 c0 -72
-1 -76 -26 -85 -34 -13 -40 -13 -58 6 -22 22 -20 44 4 44 11 0 20 -7 20 -16 0
-8 5 -12 10 -9 6 3 10 35 10 71 0 57 2 64 20 64 18 0 20 -7 20 -75z m127 60
c0 -10 -6 -14 -14 -10 -8 3 -18 5 -21 6 -4 0 2 4 13 9 11 5 20 9 21 9 0 1 1
-6 1 -14z m409 7 c16 -10 22 -35 14 -52 -5 -8 -5 -34 0 -58 7 -40 6 -42 -16
-42 -20 0 -24 5 -24 30 0 17 -4 30 -10 30 -5 0 -10 -13 -10 -30 0 -25 -4 -30
-25 -30 -25 0 -25 1 -25 80 l0 80 43 0 c23 0 47 -4 53 -8z m134 -12 c0 -15 -7
-20 -25 -20 -14 0 -25 -4 -25 -10 0 -5 11 -10 25 -10 18 0 25 -5 25 -20 0 -15
-7 -20 -25 -20 -16 0 -25 -6 -25 -15 0 -9 9 -15 25 -15 16 0 25 -6 25 -15 0
-11 -12 -15 -50 -15 l-50 0 0 80 0 80 50 0 c43 0 50 -3 50 -20z m196 13 c-12
-12 -58 -15 -51 -3 3 5 18 10 32 10 15 0 23 -3 19 -7z m44 -9 c0 -2 -7 -4 -15
-4 -8 0 -15 4 -15 10 0 5 7 7 15 4 8 -4 15 -8 15 -10z m-1514 -3 c5 -5 18 -11
29 -14 11 -3 -4 -5 -32 -6 -41 -1 -53 2 -53 14 0 17 40 21 56 6z m1927 -23 c2
-18 3 -35 1 -37 -3 -3 -25 5 -50 17 -28 14 -42 27 -38 34 5 8 2 9 -9 5 -10 -3
-17 -2 -17 3 0 6 24 10 54 10 53 0 54 0 59 -32z m-1853 1 c0 -6 -4 -7 -10 -4
-5 3 -10 11 -10 16 0 6 5 7 10 4 6 -3 10 -11 10 -16z m1367 5 c-3 -3 -12 -4
-19 -1 -8 3 -5 6 6 6 11 1 17 -2 13 -5z m-1112 -14 c-11 -5 -29 -8 -40 -8 -16
0 -15 2 5 8 34 11 60 11 35 0z m-108 -6 c-3 -3 -12 -4 -19 -1 -8 3 -5 6 6 6
11 1 17 -2 13 -5z m333 -33 c0 -14 -5 -18 -20 -14 -19 5 -20 6 -3 19 23 17 23
17 23 -5z m80 9 c0 -5 -5 -10 -11 -10 -5 0 -7 5 -4 10 3 6 8 10 11 10 2 0 4
-4 4 -10z m-466 -29 c-2 -3 -12 3 -22 13 -16 17 -16 18 5 5 12 -7 20 -15 17
-18z m76 19 c0 -13 -11 -13 -30 0 -12 8 -11 10 8 10 12 0 22 -4 22 -10z m128
-57 c2 -29 -1 -33 -32 -38 -19 -4 -44 -4 -56 0 -15 5 -20 4 -16 -4 11 -17 -10
-13 -46 9 -18 11 -45 20 -60 20 -21 0 -28 5 -28 19 0 25 21 29 141 27 l95 -1
2 -32z m-298 4 c0 -21 -6 -25 -39 -31 -46 -7 -73 -32 -50 -47 8 -5 42 -9 77
-9 34 0 62 -3 62 -7 0 -14 -14 -30 -30 -35 -8 -3 15 -5 52 -5 45 0 65 3 61 10
-4 6 0 8 10 4 9 -3 37 0 62 7 25 8 45 10 45 5 0 -5 13 -9 30 -9 16 0 33 -6 37
-14 5 -9 19 -12 42 -8 24 3 30 7 20 14 -10 7 -9 8 5 4 23 -8 116 14 116 26 0
10 49 9 75 -2 l20 -9 -20 -1 -20 -1 20 -9 c12 -5 14 -9 6 -9 -11 -1 -10 -5 5
-15 10 -8 16 -17 13 -20 -3 -3 -224 -9 -492 -12 l-487 -7 0 60 c0 54 2 61 25
71 14 6 25 16 25 22 0 5 10 10 23 11 21 0 21 1 2 9 -15 6 -6 9 32 9 28 1 60 4
70 7 15 5 15 4 3 -5 -13 -9 -13 -11 3 -11 9 0 17 5 17 11 0 6 6 9 13 6 8 -3
19 -2 25 2 6 3 40 8 76 9 64 3 66 3 66 -21z m329 -59 c0 -27 -2 -29 -8 -13 -5
11 -6 26 -4 33 8 21 13 13 12 -20z m236 22 c3 -5 1 -10 -4 -10 -6 0 -11 5 -11
10 0 6 2 10 4 10 3 0 8 -4 11 -10z m130 1 c3 -6 1 -11 -4 -11 -6 0 -11 -11
-11 -25 0 -14 5 -25 10 -25 6 0 10 -18 10 -40 0 -22 -3 -40 -7 -40 -17 0 -29
16 -27 38 1 13 -4 22 -12 22 -8 0 -14 -8 -14 -17 0 -15 -2 -16 -10 -3 -7 11
-10 11 -10 2 0 -7 -4 -10 -10 -7 -17 10 -11 22 12 28 39 10 20 20 -69 36 -57
10 -100 29 -73 32 8 1 22 2 30 3 8 1 32 -7 52 -16 48 -23 69 -23 41 1 -13 11
-23 21 -23 23 0 9 109 8 115 -1z m125 1 c0 -5 -26 -9 -57 -10 -43 0 -52 2 -33
8 34 11 90 12 90 2z m94 0 c3 -5 -1 -9 -9 -9 -8 0 -15 4 -15 9 0 4 4 8 9 8 6
0 12 -4 15 -8z m-936 -29 c2 -9 -7 -13 -27 -13 -32 0 -50 15 -29 24 21 8 51 2
56 -11z m820 -9 c-9 -9 -21 -13 -27 -10 -20 13 -11 26 16 26 25 0 26 -1 11
-16z m-38 -40 c0 -8 5 -14 11 -14 5 0 7 6 3 13 -5 8 -2 8 9 -2 9 -7 17 -10 17
-7 0 4 5 4 11 0 8 -4 7 -9 -2 -15 -9 -5 1 -10 30 -15 61 -10 32 -24 -50 -24
-36 0 -68 2 -70 5 -3 2 -3 19 -1 38 3 24 9 33 23 34 11 1 19 -5 19 -13z m296
-28 c18 6 18 6 -1 -9 -23 -18 -61 -22 -70 -7 -3 6 4 14 17 19 13 5 25 5 29 -1
3 -5 14 -6 25 -2z m-594 -50 c6 4 5 -3 -1 -13 -6 -11 -7 -24 -3 -28 4 -4 -3
-4 -15 -1 -14 5 -23 3 -23 -4 0 -8 -6 -8 -19 0 -16 8 -22 6 -30 -7 -10 -17
-10 -17 -11 0 0 9 -8 17 -17 17 -15 0 -16 2 -3 10 8 5 11 10 5 11 -5 1 -17 2
-25 3 -8 2 -31 4 -50 6 -20 2 -2 6 45 9 44 3 93 3 109 -1 16 -4 33 -5 38 -2z
m71 -1 c4 -6 10 -6 15 2 5 7 30 12 65 12 l57 -1 -1 -32 c0 -19 -3 -25 -7 -16
-7 15 -52 23 -52 9 0 -4 -11 -10 -25 -13 -14 -4 -24 -10 -21 -14 2 -4 -7 -8
-20 -8 -14 -1 -25 5 -29 16 -4 12 -12 16 -25 13 -11 -3 -20 0 -20 6 0 6 12 12
28 12 25 2 26 2 3 6 -18 4 -21 7 -11 13 17 10 32 8 43 -5z m754 -11 c-3 -3
-12 -4 -19 -1 -8 3 -5 6 6 6 11 1 17 -2 13 -5z m453 -144 c12 -8 11 -10 -7
-10 -13 0 -23 5 -23 10 0 13 11 13 30 0z m303 3 c-51 -2 -135 -2 -185 0 -51 1
-10 3 92 3 102 0 143 -2 93 -3z"/>
<path d="M1133 1813 c-7 -3 -13 -17 -13 -31 0 -19 3 -23 9 -13 5 7 14 10 20 7
7 -4 11 1 11 13 0 22 -9 30 -27 24z"/>
<path d="M1170 1795 c0 -18 5 -25 20 -25 11 0 20 5 20 11 0 8 5 7 15 -1 13
-10 18 -11 28 -1 9 10 9 12 -2 9 -21 -5 -25 20 -4 25 15 4 14 5 -4 6 -12 0
-24 -5 -26 -11 -4 -10 -6 -10 -6 0 -1 6 -10 12 -21 12 -15 0 -20 -7 -20 -25z
m30 0 c0 -8 -4 -15 -10 -15 -5 0 -10 7 -10 15 0 8 5 15 10 15 6 0 10 -7 10
-15z"/>
<path d="M1270 1800 c0 -9 8 -16 18 -17 11 -1 18 5 18 17 0 12 -7 18 -18 17
-10 -1 -18 -8 -18 -17z"/>
<path d="M1343 1799 c2 -13 9 -25 14 -26 17 -6 27 18 12 28 -10 6 -8 9 9 9 16
0 22 -6 23 -22 0 -22 1 -22 11 2 11 25 11 25 15 3 3 -15 11 -23 24 -23 15 0
20 6 17 23 -3 20 -9 22 -66 25 -60 3 -62 2 -59 -19z m113 -16 c-10 -10 -19 5
-10 18 6 11 8 11 12 0 2 -7 1 -15 -2 -18z"/>
<path d="M1480 1783 c0 -22 2 -25 10 -13 6 10 10 11 10 3 0 -18 17 -16 24 3 8
22 -4 40 -15 23 -6 -10 -9 -11 -9 -1 0 6 -4 12 -10 12 -5 0 -10 -12 -10 -27z"/>
<path d="M1536 1784 c-10 -27 -7 -34 17 -34 18 0 19 2 7 10 -13 9 -13 10 0 10
12 0 13 2 1 9 -11 7 -11 9 0 14 10 4 10 6 -2 6 -9 1 -20 -6 -23 -15z"/>
<path d="M984 1765 c0 -14 3 -25 6 -25 9 0 29 38 23 44 -15 14 -31 4 -29 -19z"/>
<path d="M1050 1780 c0 -5 7 -10 15 -10 8 0 15 5 15 10 0 6 -7 10 -15 10 -8 0
-15 -4 -15 -10z"/>
<path d="M940 1771 c0 -17 12 -41 20 -41 10 0 1 38 -11 46 -5 3 -9 1 -9 -5z"/>
<path d="M902 1748 c2 -14 11 -24 23 -25 11 -2 14 0 7 3 -6 3 -10 10 -6 15 3
5 -1 9 -8 9 -9 0 -9 3 2 10 13 8 12 10 -3 10 -13 0 -18 -6 -15 -22z"/>
<path d="M1605 1760 c3 -5 10 -10 16 -10 5 0 9 5 9 10 0 6 -7 10 -16 10 -8 0
-12 -4 -9 -10z"/>
<path d="M1666 1754 c-8 -21 1 -34 22 -33 11 0 12 3 5 6 -7 2 -13 12 -13 20 0
10 6 13 16 9 8 -3 12 -2 9 4 -9 15 -32 12 -39 -6z"/>
<path d="M1717 1747 c-11 -29 -8 -37 11 -30 10 4 14 2 9 -3 -5 -5 -39 -9 -75
-9 -52 0 -67 -3 -68 -15 0 -9 1 -10 3 -2 5 13 43 17 43 5 0 -7 17 -8 77 -4 17
1 43 30 43 48 0 12 -3 13 -14 4 -11 -10 -15 -8 -18 6 -3 17 -4 17 -11 0z"/>
<path d="M850 1740 c0 -6 8 -10 18 -10 15 0 15 -2 2 -11 -13 -8 -12 -10 3 -7
24 4 23 20 -2 30 -12 4 -21 3 -21 -2z"/>
<path d="M1019 1740 c-1 -3 -1 -8 0 -12 1 -11 -77 -30 -102 -24 -14 3 -13 1 5
-6 15 -6 29 -19 31 -27 3 -9 5 -6 6 8 1 18 5 22 21 18 11 -3 20 -1 20 5 0 6 7
8 15 4 8 -3 15 0 15 6 0 6 3 8 6 5 4 -3 15 -2 25 4 11 5 19 6 20 2 4 -43 19
-70 19 -34 0 14 4 20 12 15 7 -5 9 -2 5 9 -4 10 0 17 11 20 9 2 -11 6 -46 8
-34 2 -63 2 -63 -1z"/>
<path d="M1483 1725 c-3 -9 -3 -18 -1 -21 3 -3 8 4 11 16 6 23 -1 27 -10 5z"/>
<path d="M1766 1724 c-9 -23 -7 -36 4 -29 6 3 10 1 10 -4 0 -19 17 -12 23 9 7
26 -28 48 -37 24z"/>
<path d="M1385 1720 c3 -5 8 -10 11 -10 2 0 4 5 4 10 0 6 -5 10 -11 10 -5 0
-7 -4 -4 -10z"/>
<path d="M1565 1710 c4 -6 11 -8 16 -5 14 9 11 15 -7 15 -8 0 -12 -5 -9 -10z"/>
<path d="M1810 1696 c-5 -13 -18 -27 -29 -31 -21 -6 -29 -39 -12 -49 5 -4 7 4
3 16 -4 17 -2 20 11 15 10 -4 16 -2 14 5 -4 22 30 19 59 -5 l29 -25 1 25 c2
18 -1 21 -11 13 -9 -8 -12 -4 -11 17 0 14 -5 28 -13 31 -10 3 -12 -1 -9 -16 4
-14 2 -19 -7 -16 -7 3 -11 14 -8 25 8 27 -6 24 -17 -5z"/>
<path d="M740 1703 c0 -19 11 -43 21 -43 13 0 11 14 -6 36 -8 10 -15 14 -15 7z"/>
<path d="M717 1693 c-4 -6 0 -19 8 -29 11 -15 14 -16 15 -4 0 21 -16 44 -23
33z"/>
<path d="M1610 1670 c0 -5 -10 -10 -22 -11 -19 -1 -18 -2 6 -10 17 -4 32 -6
35 -4 2 3 -1 5 -7 5 -6 0 -9 7 -6 15 4 8 3 15 0 15 -3 0 -6 -4 -6 -10z"/>
<path d="M1717 1664 c4 -10 0 -12 -11 -8 -9 3 -16 2 -16 -4 0 -12 18 -10 44 4
18 11 17 11 -2 16 -15 4 -19 2 -15 -8z"/>
<path d="M1902 1663 c-16 -29 -15 -36 4 -29 8 3 12 2 9 -4 -3 -6 -2 -10 4 -10
5 0 15 8 21 18 8 14 9 12 4 -10 -5 -23 -3 -28 14 -28 19 0 38 27 27 38 -2 3
-7 -3 -11 -12 -3 -9 -10 -16 -15 -16 -6 0 -5 9 1 20 11 20 9 21 -22 24 -7 1
-16 8 -19 16 -5 11 -8 10 -17 -7z"/>
<path d="M653 1654 c-7 -20 11 -38 31 -31 18 7 22 27 6 27 -5 0 -10 -6 -10
-12 0 -9 -3 -8 -10 2 -7 11 -5 17 8 22 16 6 16 7 -1 7 -10 1 -20 -6 -24 -15z"/>
<path d="M700 1661 c0 -5 5 -13 10 -16 6 -3 10 -2 10 4 0 5 -4 13 -10 16 -5 3
-10 2 -10 -4z"/>
<path d="M910 1659 c0 -5 5 -7 10 -4 6 3 10 8 10 11 0 2 -4 4 -10 4 -5 0 -10
-5 -10 -11z"/>
<path d="M1630 1666 c0 -2 8 -10 18 -17 15 -13 16 -12 3 4 -13 16 -21 21 -21
13z"/>
<path d="M612 1638 c-8 -8 -8 -17 -1 -30 8 -15 14 -16 30 -8 11 6 17 15 14 21
-9 14 -27 11 -19 -3 5 -10 3 -10 -7 0 -12 11 -12 14 1 22 8 5 10 10 5 10 -6 0
-16 -5 -23 -12z"/>
<path d="M783 1634 c-3 -8 -1 -20 5 -26 7 -7 10 -2 9 16 -2 30 -5 32 -14 10z"/>
<path d="M1811 1636 c2 -2 15 -9 29 -15 24 -11 24 -11 6 3 -16 13 -49 24 -35
12z"/>
<path d="M741 1616 c-8 -10 -8 -16 3 -25 11 -10 14 -7 12 14 -1 29 0 29 -15
11z"/>
<path d="M1990 1610 c-11 -21 -6 -40 11 -40 6 0 31 -16 56 -35 25 -19 52 -35
59 -35 8 0 13 -3 13 -7 -3 -20 2 -24 16 -13 17 14 21 45 5 35 -5 -3 -10 2 -10
11 0 16 -2 15 -22 -2 -20 -16 -21 -17 -9 -1 20 25 -1 47 -28 30 -16 -10 -20
-9 -24 7 -3 14 -1 17 11 13 10 -4 13 -2 8 5 -10 17 -36 15 -36 -4 0 -8 -4 -13
-9 -10 -5 3 -7 14 -4 24 2 10 -2 24 -11 31 -12 10 -17 9 -26 -9z m23 -15 c-3
-9 -8 -14 -10 -11 -3 3 -2 9 2 15 9 16 15 13 8 -4z m79 -67 c-7 -7 -12 -8 -12
-2 0 6 3 14 7 17 3 4 9 5 12 2 2 -3 -1 -11 -7 -17z"/>
<path d="M569 1613 c-1 -5 0 -17 1 -28 2 -16 0 -17 -14 -6 -8 7 -20 10 -26 6
-16 -10 -12 -25 8 -25 14 0 15 -2 2 -10 -13 -9 -13 -10 1 -10 8 0 25 9 37 20
12 11 27 20 33 20 7 0 5 8 -6 20 -19 20 -34 26 -36 13z"/>
<path d="M1796 1604 c-8 -22 -9 -21 22 -37 28 -13 28 -13 23 17 -3 19 -6 24
-9 14 -2 -10 -8 -18 -14 -18 -6 0 -8 9 -5 20 6 24 -8 27 -17 4z"/>
<path d="M1890 1606 c0 -8 9 -18 21 -21 15 -5 19 -13 16 -27 -4 -15 -3 -17 9
-8 11 10 11 17 2 34 -18 35 -48 48 -48 22z"/>
<path d="M652 1597 c-28 -16 -86 -86 -78 -94 3 -4 6 -2 6 3 0 6 14 21 32 34
25 18 30 19 25 6 -4 -9 -3 -14 3 -11 5 3 8 -4 7 -15 -1 -21 -12 -26 -22 -10
-3 6 -12 10 -18 9 -9 0 -9 -2 -1 -5 7 -3 10 -15 8 -27 -2 -12 -2 -16 2 -9 3 6
14 12 25 12 16 0 18 6 14 40 -4 27 -1 40 7 40 6 0 8 3 5 7 -4 3 -2 12 4 20 14
16 11 16 -19 0z"/>
<path d="M705 1599 c-4 -6 -5 -12 -2 -15 2 -3 7 2 10 11 7 17 1 20 -8 4z"/>
<path d="M1860 1590 c-6 -11 -8 -20 -6 -20 3 0 10 9 16 20 6 11 8 20 6 20 -3
0 -10 -9 -16 -20z"/>
<path d="M1963 1532 c-1 -22 0 -24 9 -8 6 10 6 22 2 26 -5 5 -10 -3 -11 -18z"/>
<path d="M475 1529 c-4 -6 -5 -13 -2 -16 7 -7 27 6 27 18 0 12 -17 12 -25 -2z"/>
<path d="M521 1480 c-19 -16 -32 -33 -28 -36 4 -4 7 -2 7 5 0 7 4 10 8 7 5 -3
15 4 22 14 13 19 15 19 35 2 20 -17 20 -17 2 4 -9 11 -14 24 -10 27 17 18 -6
3 -36 -23z"/>
<path d="M409 1498 c-9 -18 -3 -45 10 -45 27 0 43 17 30 33 -10 12 -36 19 -40
12z m29 -33 c-3 -3 -9 2 -12 12 -6 14 -5 15 5 6 7 -7 10 -15 7 -18z"/>
<path d="M375 1460 c-8 -13 14 -52 25 -45 11 7 2 35 -12 35 -5 0 -6 5 -3 10 3
6 4 10 1 10 -3 0 -8 -4 -11 -10z"/>
<path d="M2180 1455 c0 -8 5 -15 10 -15 6 0 10 7 10 15 0 8 -4 15 -10 15 -5 0
-10 -7 -10 -15z"/>
<path d="M340 1425 c-10 -12 -10 -18 0 -30 19 -22 32 -18 19 6 -8 15 -8 19 0
15 6 -4 11 -3 11 3 0 18 -17 21 -30 6z"/>
<path d="M414 1425 c3 -22 13 -28 33 -20 10 5 24 7 31 6 6 -1 12 2 12 7 0 16
-13 22 -26 11 -9 -7 -19 -7 -32 0 -16 9 -20 8 -18 -4z"/>
<path d="M283 1360 c-3 -11 -10 -20 -16 -20 -5 0 -2 -9 8 -20 18 -20 8 -29
-11 -10 -7 7 -18 2 -34 -15 -22 -24 -23 -26 -7 -42 16 -16 18 -16 35 0 16 17
16 19 -2 33 -11 8 -15 14 -9 14 7 0 15 -5 19 -11 8 -13 64 45 64 67 0 12 -4
13 -22 3 -21 -11 -22 -11 -9 4 10 13 10 17 1 17 -6 0 -14 -9 -17 -20z m27 -25
c-7 -8 -17 -12 -23 -8 -6 4 -3 9 9 14 27 11 28 11 14 -6z m-65 -65 c3 -5 1
-10 -4 -10 -6 0 -11 5 -11 10 0 6 2 10 4 10 3 0 8 -4 11 -10z"/>
<path d="M349 1277 c15 -19 2 -24 -16 -6 -8 8 -13 7 -18 -3 -5 -7 -4 -10 0 -5
5 4 16 0 26 -9 12 -11 23 -13 34 -7 14 8 13 12 -12 28 -24 16 -26 16 -14 2z"/>
<path d="M80 1249 c0 -5 5 -7 10 -4 6 3 10 8 10 11 0 2 -4 4 -10 4 -5 0 -10
-5 -10 -11z"/>
<path d="M200 1241 c0 -5 7 -12 16 -15 24 -9 28 -7 14 9 -14 17 -30 20 -30 6z"/>
<path d="M314 1237 c1 -7 7 -21 13 -32 10 -18 11 -17 10 8 -1 15 -7 29 -14 31
-6 3 -10 -1 -9 -7z"/>
<path d="M184 1215 c3 -8 2 -14 -2 -14 -21 3 -24 -3 -6 -16 25 -19 38 -19 30
0 -3 8 -2 14 2 14 21 -3 24 3 6 16 -25 19 -38 19 -30 0z"/>
<path d="M232 1171 c-32 -30 -42 -35 -42 -21 0 15 -18 30 -35 30 -2 0 -18 -30
-36 -66 -27 -54 -30 -67 -18 -75 8 -5 19 -7 24 -6 14 5 19 47 6 47 -6 0 -11 5
-11 11 0 6 9 8 20 4 21 -7 29 10 8 18 -7 2 -10 8 -6 12 4 4 14 2 23 -5 12 -10
23 -6 63 24 27 19 53 32 58 28 4 -4 3 0 -4 9 -6 9 -9 19 -5 22 3 4 4 7 2 7 -2
0 -23 -17 -47 -39z m-57 -21 c3 -5 2 -10 -4 -10 -5 0 -13 5 -16 10 -3 6 -2 10
4 10 5 0 13 -4 16 -10z m-50 -90 c3 -5 2 -10 -4 -10 -5 0 -13 5 -16 10 -3 6
-2 10 4 10 5 0 13 -4 16 -10z"/>
<path d="M310 1170 c-9 -6 -10 -10 -3 -10 6 0 15 5 18 10 8 12 4 12 -15 0z"/>
<path d="M2263 1393 c-17 -6 -16 -40 1 -46 7 -3 19 0 26 6 10 10 10 7 1 -10
-13 -25 -2 -36 26 -26 16 6 16 5 4 -11 -12 -15 -12 -19 3 -34 15 -15 16 -15
11 -1 -4 10 -1 20 6 25 8 4 10 3 5 -4 -5 -8 -1 -10 9 -6 14 6 13 10 -6 30 -12
13 -27 21 -32 17 -6 -4 -8 0 -5 8 6 17 -32 58 -49 52z m22 -23 c-3 -5 -11 -10
-16 -10 -6 0 -7 5 -4 10 3 6 11 10 16 10 6 0 7 -4 4 -10z"/>
<path d="M2170 1376 c0 -2 7 -7 16 -10 8 -3 12 -2 9 4 -6 10 -25 14 -25 6z"/>
<path d="M2186 1334 c-5 -14 -4 -15 9 -4 19 15 34 5 17 -12 -16 -16 -15 -29 2
-22 18 7 15 48 -5 52 -9 2 -19 -5 -23 -14z"/>
<path d="M2249 1297 c11 -14 11 -20 0 -34 -11 -15 -11 -16 1 -5 21 18 30 15
27 -10 -1 -12 4 -23 11 -24 26 -3 26 -5 8 -19 -11 -8 -15 -15 -10 -15 6 0 15
5 22 12 9 9 12 8 12 -4 0 -17 -26 -32 -41 -22 -5 3 -9 11 -9 17 0 7 -9 18 -21
25 -18 12 -17 8 6 -22 31 -40 29 -40 56 -26 24 13 24 28 2 53 -17 19 -17 19 5
13 38 -12 24 7 -31 43 -28 19 -46 27 -38 18z"/>
<path d="M2170 1297 c0 -2 15 -16 33 -33 l32 -29 -29 33 c-28 30 -36 37 -36
29z"/>
<path d="M2355 1240 c-8 -12 15 -45 33 -46 48 -4 48 -4 27 -20 -19 -14 -19
-15 -2 -42 10 -15 23 -39 28 -54 6 -16 15 -28 21 -28 5 0 6 -4 3 -10 -3 -5 1
-10 9 -10 9 0 16 8 16 18 0 15 2 15 11 2 9 -12 10 -12 5 3 -3 10 -6 21 -6 23
0 10 -29 3 -33 -8 -3 -8 -6 -7 -6 4 -1 9 4 20 9 23 19 12 10 25 -17 25 -25 1
-26 2 -11 14 16 12 16 14 -2 44 -11 18 -23 32 -27 31 -20 -3 -27 2 -14 10 7 5
10 14 7 20 -9 14 -43 14 -51 1z"/>
<path d="M2196 1187 c3 -10 9 -15 12 -12 3 3 0 11 -7 18 -10 9 -11 8 -5 -6z"/>
<path d="M2352 1094 c10 -10 20 -16 22 -13 3 3 -5 11 -17 18 -21 13 -21 12 -5
-5z"/>
<path d="M2499 1008 c0 -22 -1 -22 -10 -3 -8 18 -8 18 -6 -4 3 -32 27 -40 27
-9 0 19 2 20 11 8 8 -12 10 -12 7 4 -4 29 -28 32 -29 4z"/>
<path d="M1325 1457 c-4 -10 -5 -21 -1 -24 10 -10 18 4 13 24 -4 17 -4 17 -12
0z"/>
<path d="M904 1404 c9 -33 13 -40 22 -31 4 4 2 13 -4 20 -7 8 -9 16 -6 19 3 3
0 9 -7 13 -9 6 -10 1 -5 -21z"/>
<path d="M1636 1394 c-8 -21 -8 -24 3 -24 12 0 22 28 12 35 -5 3 -12 -2 -15
-11z"/>
<path d="M405 1330 c3 -5 8 -10 11 -10 2 0 4 5 4 10 0 6 -5 10 -11 10 -5 0 -7
-4 -4 -10z"/>
<path d="M1423 1247 c-9 -57 -2 -68 28 -41 25 22 25 70 0 84 -18 9 -20 5 -28
-43z m37 -1 c0 -13 -7 -29 -15 -36 -12 -10 -15 -9 -15 8 0 27 10 52 21 52 5 0
9 -11 9 -24z"/>
<path d="M1641 1284 c0 -11 3 -14 6 -6 3 7 2 16 -1 19 -3 4 -6 -2 -5 -13z"/>
<path d="M1049 1201 c16 -53 31 -58 31 -12 0 24 -25 61 -42 61 -2 0 2 -22 11
-49z m18 -13 c-3 -8 -6 -5 -6 6 -1 11 2 17 5 13 3 -3 4 -12 1 -19z"/>
<path d="M1307 1170 c-20 -29 -23 -41 -14 -46 6 -4 9 -4 5 1 -4 4 4 21 17 37
22 26 32 48 21 48 -2 0 -15 -18 -29 -40z"/>
<path d="M1260 1105 c0 -8 5 -15 10 -15 6 0 10 7 10 15 0 8 -4 15 -10 15 -5 0
-10 -7 -10 -15z"/>
<path d="M1135 1014 c0 -21 4 -25 22 -21 12 2 24 -1 27 -7 2 -6 5 4 5 22 1 17
-3 32 -9 32 -5 0 -10 -8 -10 -17 -1 -17 -1 -17 -14 0 -18 23 -21 22 -21 -9z"/>
<path d="M1294 1018 c2 -16 11 -24 29 -26 23 -3 27 0 27 22 0 27 -14 35 -24
14 -5 -10 -7 -10 -12 0 -10 20 -24 13 -20 -10z"/>
<path d="M970 1006 c0 -2 13 -6 29 -8 17 -2 28 -1 25 4 -5 8 -54 12 -54 4z"/>
<path d="M1083 1002 c-28 -4 -29 -13 -5 -41 l17 -22 13 22 c8 11 9 18 3 14 -6
-3 -11 -2 -11 4 0 5 5 11 12 13 19 7 -4 14 -29 10z"/>
<path d="M943 973 c9 -2 23 -2 30 0 6 3 -1 5 -18 5 -16 0 -22 -2 -12 -5z"/>
<path d="M935 943 c-12 -4 -7 -83 4 -83 9 0 31 46 31 64 0 15 -19 25 -35 19z"/>
<path d="M1114 905 c-7 -38 -2 -51 15 -40 14 8 15 75 1 75 -5 0 -12 -16 -16
-35z"/>
<path d="M1810 763 c0 -7 0 -16 1 -20 0 -4 -8 -10 -18 -14 -14 -6 -12 -8 10
-8 28 -1 34 13 17 39 -6 10 -10 11 -10 3z"/>
<path d="M648 735 c-4 -17 -1 -25 8 -25 8 0 14 11 14 25 0 14 -4 25 -9 25 -5
0 -11 -11 -13 -25z"/>
<path d="M1891 753 c0 -6 -4 -20 -7 -30 -5 -14 -4 -15 5 -7 7 7 11 20 8 30 -3
11 -5 14 -6 7z"/>
<path d="M1947 680 c-8 -31 0 -46 25 -47 22 -2 52 15 59 32 2 6 9 9 16 9 6 -1
9 5 6 12 -4 10 -9 11 -18 4 -6 -5 -16 -6 -20 -2 -5 4 -6 3 -3 -3 3 -5 -4 -19
-15 -29 -20 -19 -20 -19 -13 0 13 33 12 38 -10 42 -15 2 -23 -3 -27 -18z m21
-10 c-7 -10 -14 -18 -15 -16 -6 6 9 36 18 36 5 0 4 -9 -3 -20z"/>
<path d="M1911 678 c0 -7 5 -22 10 -33 8 -17 9 -16 6 7 -2 15 1 29 7 32 6 2 3
5 -6 5 -10 1 -18 -5 -17 -11z"/>
<path d="M1151 624 c0 -11 3 -14 6 -6 3 7 2 16 -1 19 -3 4 -6 -2 -5 -13z"/>
<path d="M2030 393 c0 -5 23 -9 50 -10 28 -1 50 2 50 7 0 6 -22 10 -50 10 -27
0 -50 -3 -50 -7z"/>
<path d="M2305 370 c27 -12 43 -12 25 0 -8 5 -22 9 -30 9 -10 0 -8 -3 5 -9z"/>
<path d="M2360 350 c0 -5 7 -10 16 -10 8 0 12 5 9 10 -3 6 -10 10 -16 10 -5 0
-9 -4 -9 -10z"/>
<path d="M2400 340 c0 -5 5 -10 10 -10 6 0 10 5 10 10 0 6 -4 10 -10 10 -5 0
-10 -4 -10 -10z"/>
<path d="M2480 336 c0 -2 9 -6 20 -9 11 -3 20 -1 20 4 0 5 -9 9 -20 9 -11 0
-20 -2 -20 -4z"/>
<path d="M2445 320 c3 -5 8 -10 11 -10 2 0 4 5 4 10 0 6 -5 10 -11 10 -5 0 -7
-4 -4 -10z"/>
<path d="M2350 286 c0 -2 7 -6 15 -10 8 -3 15 -1 15 4 0 6 -7 10 -15 10 -8 0
-15 -2 -15 -4z"/>
<path d="M2428 253 c6 -2 18 -2 25 0 6 3 1 5 -13 5 -14 0 -19 -2 -12 -5z"/>
<path d="M876 1214 c-8 -20 -8 -58 0 -77 5 -13 9 -12 29 5 23 20 23 21 7 54
-17 37 -27 42 -36 18z"/>
<path d="M1244 903 c2 -16 4 -48 5 -72 l1 -44 24 23 c37 34 44 79 16 102 -33
26 -49 23 -46 -9z m42 -35 c-8 -50 -26 -58 -26 -12 0 23 3 44 6 47 14 13 25
-6 20 -35z"/>
<path d="M1495 887 c-28 -40 -14 -107 22 -107 16 0 53 58 53 82 0 9 -13 23
-30 31 -28 15 -31 14 -45 -6z m15 -26 c-7 -13 -7 -22 0 -26 5 -3 10 -2 10 4 0
6 7 8 16 4 23 -9 0 -26 -25 -18 -23 7 -27 25 -9 43 17 17 20 15 8 -7z m44 4
c-4 -8 -10 -12 -15 -9 -14 8 -10 24 6 24 9 0 12 -6 9 -15z"/>
<path d="M480 781 c5 -11 15 -23 21 -27 6 -3 3 5 -6 20 -20 30 -30 35 -15 7z"/>
<path d="M1250 451 c0 -51 19 -83 21 -37 3 67 1 86 -11 86 -5 0 -10 -22 -10
-49z"/>
<path d="M770 449 c0 -36 4 -49 13 -47 15 5 21 41 13 74 -11 42 -26 26 -26
-27z"/>
<path d="M1440 479 c0 -11 5 -17 10 -14 6 3 10 13 10 21 0 8 -4 14 -10 14 -5
0 -10 -9 -10 -21z"/>
<path d="M625 390 c-3 -5 -1 -10 4 -10 6 0 11 5 11 10 0 6 -2 10 -4 10 -3 0
-8 -4 -11 -10z"/>
<path d="M658 383 c7 -3 16 -2 19 1 4 3 -2 6 -13 5 -11 0 -14 -3 -6 -6z"/>
<path d="M380 276 c0 -2 7 -6 15 -10 8 -3 15 -1 15 4 0 6 -7 10 -15 10 -8 0
-15 -2 -15 -4z"/>
<path d="M815 170 c4 -6 11 -8 16 -5 14 9 11 15 -7 15 -8 0 -12 -5 -9 -10z"/>
</g>
</svg>
